- 
http://www.Speed.Cd      fast  and The Hottest Private Tracker on the net

Please Seed back to make the speed Faster!!!

------------------nfo--------------------------
-[img]http://img412.imageshack.us/img412/2820/swpshk.jpg[/img]

Swamp.Shark.2011.DVDRip.XviD-EMBER 
http://www.imdb.com/title/tt1684927/

Plot
Open on gorgeous swamplands of the Atchafalaya Basin in the summer. Lots of beautiful teens are at the 
beach the weekend before Gator Fest. That night an animal smuggling deal goes wrong and a large sea 
creature escapes into a swampy backwoods river

Source                           : DVD5 Thanks ;)

General
Format                           : AVI
Format/Info                      : Audio Video Interleave
File size                        : 821 MiB
Duration                         : 1h 28mn
Overall bit rate                 : 1 291 Kbps
Writing application              : VirtualDubMod 1.5.10.2 (build 2540/release)
Writing library                  : VirtualDubMod build 2540/release

Video
ID                               : 0
Format                           : MPEG-4 Visual
Format profile                   : Advanced Simple@L5
Format settings, BVOP            : 2
Format settings, QPel            : No
Format settings, GMC             : No warppoints
Format settings, Matrix          : Default (H.263)
Muxing mode                      : Packed bitstream
Codec ID                         : XVID
Codec ID/Hint                    : XviD
Duration                         : 1h 28mn
Bit rate                         : 1 154 Kbps
Width                            : 656 pixels
Height                           : 368 pixels
Display aspect ratio             : 16:9
Frame rate                       : 23.976 fps
Color space                      : YUV
Chroma subsampling               : 4:2:0
Bit depth                        : 8 bits
Scan type                        : Progressive
Compression mode                 : Lossy
Bits/(Pixel*Frame)               : 0.199
Stream size                      : 734 MiB (89%)
Writing library                  : XviD 64

Audio
ID                               : 1
Format                           : MPEG Audio
Format version                   : Version 1
Format profile                   : Layer 3
Mode                             : Joint stereo
Mode extension                   : MS Stereo
Codec ID                         : 55
Codec ID/Hint                    : MP3
Duration                         : 1h 28mn
Bit rate mode                    : Constant
Bit rate                         : 128 Kbps
Channel(s)                       : 2 channels
Sampling rate                    : 48.0 KHz
Compression mode                 : Lossy
Stream size                      : 81.3 MiB (10%)
Alignment                        : Aligned on interleaves
Interleave, duration             : 42 ms (1.00 video frame)
Interleave, preload duration     : 504 ms
Writing library                  : LAME3.98r
Encoding settings                : -m j -V 4 -q 2 -lowpass 17 -b 128

Notes
Resized, deintelaced, denoised, decombed to remove remaining interlacing, and added sharpness

Screens
[img]http://img856.imageshack.us/img856/6800/60283098.png[/img]
[img]http://img69.imageshack.us/img69/3681/58161566.png[/img]
[img]http://img849.imageshack.us/img849/1232/62334343.png[/img]
[img]http://img812.imageshack.us/img812/9906/37217229.png[/img]


Greetz to 

SHiRK, SHK, LKRG, UnKnOwN, IMAGiNE, SiC, BHRG, TaRiQ786, FLAWL3SS, Rx, Hive-CM8

SAMURAi, ViSUALiSE, RemixHD

And to all other groups past and present

Got something to offer?

then you should know where to find us